<svg xmlns="http://www.w3.org/2000/svg" viewBox="0 0 20 24.33"><defs><style>.cls-1{fill:#ff3e3e;}.cls-2{fill:#a3a2a0;}.cls-3{fill:#b2b2b2;}</style></defs><title>ball</title><g id="Layer_2" data-name="Layer 2"><g id="Layer_1-2" data-name="Layer 1"><circle class="cls-1" cx="10" cy="14.33" r="10"/><rect class="cls-2" x="4.94" y="4.02" width="10.13" height="4.5" rx="2.25" ry="2.25"/><path class="cls-3" d="M7.69,0h.54a.62.62,0,0,1,.62.62V5a.63.63,0,0,1-.63.63H7.69A.63.63,0,0,1,7.06,5V.63A.63.63,0,0,1,7.69,0Z"/><rect class="cls-3" x="9.1" y="-1.88" width="1.79" height="5.58" rx="0.9" ry="0.9" transform="translate(9.08 10.92) rotate(-90)"/><rect class="cls-3" x="11.02" y="0.46" width="1.79" height="5.58" rx="0.58" ry="0.58"/><rect class="cls-1" x="6.69" y="7.08" width="1.04" height="2.25" rx="0.52" ry="0.52"/><rect class="cls-1" x="5.31" y="6.71" width="1.04" height="2.25" rx="0.52" ry="0.52"/><rect class="cls-1" x="8.35" y="7.1" width="1.04" height="2.25" rx="0.52" ry="0.52"/><rect class="cls-1" x="10.1" y="7.12" width="1.04" height="2.25" rx="0.52" ry="0.52"/><rect class="cls-1" x="13.29" y="6.87" width="1.04" height="2.25" rx="0.52" ry="0.52"/><rect class="cls-1" x="11.65" y="7.08" width="1.15" height="2.25" rx="0.57" ry="0.57"/></g></g></svg>