<svg xmlns="http://www.w3.org/2000/svg" viewBox="0 0 961 601.36"><defs><style>.cls-1{fill:#b2b2b2;}.cls-2{fill:#848484;}.cls-3{fill:#c1c1c1;}</style></defs><title>bg_1</title><g id="Layer_2" data-name="Layer 2"><g id="Layer_1-2" data-name="Layer 1"><rect class="cls-1" x="486" y="347.79" width="287" height="253.58" rx="6" ry="6"/><rect class="cls-1" y="385.11" width="287" height="216.25" rx="6" ry="6"/><path class="cls-2" d="M517.68,28.35a72.33,72.33,0,0,1-2.43,91.48c-13.28,15.27-31.05,22.43-50.58,26-11.75,2.15-23.5,3.77-35,7a287,287,0,0,0-30.87,10.65c-20.33,8.17-40,17.88-60.29,26.14-19.89,8.1-40.5,14.74-61.95,17-22.61,2.38-45.58.25-67.71-4.74-36.25-8.18-69.93-24-102.74-41.17,1.3-.23,2.59-.5,3.88-.81a1.49,1.49,0,0,0,.54-.25l.27.14c38.95,20.27,79.91,38.45,124,43.49a183.07,183.07,0,0,0,65.37-3.88c19.77-4.94,38.63-12.84,57.2-21.09s37.22-17,56.55-23.7a223.18,223.18,0,0,1,27.67-7.7c11.09-2.3,22.43-3.46,33.42-6.26,19.38-4.93,36.26-16.6,46.16-34.21,9.78-17.4,11.24-38.8,4.67-57.58A66.45,66.45,0,0,0,515.53,30Z"/><path class="cls-2" d="M525.77,48.81c6.56,18.77,5.1,40.18-4.67,57.58-9.9,17.61-26.78,29.28-46.16,34.21-11,2.8-22.32,4-33.42,6.26a223.18,223.18,0,0,0-27.67,7.7c-19.34,6.68-37.88,15.4-56.55,23.7s-37.44,16.15-57.2,21.09a183.07,183.07,0,0,1-65.37,3.88c-44-5-85-23.23-124-43.49l-.27-.14c-1.31-.68-2.61-1.37-3.91-2.05-8.25-4.32-16.45-8.75-24.65-13.18-1.71-.92-3,1.8-1.31,2.7q10.44,5.63,21,11.24c-17.11,1.86-34.81-3.81-47.24-16A58.9,58.9,0,0,1,38.28,88.39C46.32,52,84.64,30.75,118.16,23c37.94-8.84,79.21-3.12,113.11,16.15,16,9.08,29.89,21.47,46.35,29.71a74.07,74.07,0,0,0,18.3,6.39,67.93,67.93,0,0,0,33.55-1.61C369.2,61.64,394.1,24.7,431.82,9c17.93-7.45,37.62-8.1,55.63-.5A70,70,0,0,1,515.53,30,66.45,66.45,0,0,1,525.77,48.81Z"/><path class="cls-2" d="M517.68,28.35,515.53,30A70,70,0,0,0,487.44,8.55c-18-7.6-37.7-7-55.63.5C394.1,24.7,369.2,61.64,329.47,73.6a67.93,67.93,0,0,1-33.55,1.61l.6-2.75c20.52,4.15,40.93-3.22,58.62-14.23C389,37.21,418.49-1.08,462,0A72.85,72.85,0,0,1,517.68,28.35Z"/><path class="cls-2" d="M296.52,72.47l-.6,2.75a74.07,74.07,0,0,1-18.3-6.39c-16.46-8.25-30.38-20.63-46.35-29.71-33.89-19.28-75.16-25-113.11-16.15C84.64,30.75,46.32,52,38.28,88.39a58.9,58.9,0,0,0,16.08,53.95c12.43,12.14,30.13,17.81,47.24,16l4.48,2.36a61.85,61.85,0,0,1-22.76-.1c-36.93-7.16-58.73-47-45.17-82,13.31-34.37,51.46-53.33,85.62-59.84,38.92-7.41,80.6-.09,114.25,20.95,16.71,10.44,31.92,24.08,50.76,30.67A60,60,0,0,0,296.52,72.47Z"/><path class="cls-2" d="M106.59,157.53c1.3.69,2.6,1.38,3.91,2.05a1.49,1.49,0,0,1-.54.25c-1.29.31-2.58.58-3.88.81l-4.48-2.36Q104.1,158,106.59,157.53Z"/><path class="cls-2" d="M106.59,157.53q-2.49.49-5,.76-10.53-5.58-21-11.24c-1.69-.91-.4-3.62,1.31-2.7C90.14,148.78,98.34,153.21,106.59,157.53Z"/><path class="cls-2" d="M676.75,211.94a38.5,38.5,0,0,1-5.19,48.44c-7.7,7.54-17.43,10.58-27.95,11.64-6.32.64-12.63,1-18.89,2.2a152.76,152.76,0,0,0-16.83,4.33c-11.14,3.47-22,7.78-33.11,11.3-10.9,3.45-22.12,6.1-33.6,6.38a111.39,111.39,0,0,1-35.72-5.4c-18.89-5.89-36.09-15.7-52.76-26.23.7-.07,1.39-.15,2.09-.27a.79.79,0,0,0,.3-.11l.14.09c19.8,12.41,40.76,23.81,63.92,28.36a97.45,97.45,0,0,0,34.85.73c10.7-1.78,21-5.17,31.25-8.75s20.47-7.44,31-10.16a118.8,118.8,0,0,1,15-2.91c6-.75,12-.88,18-1.9,10.49-1.79,19.95-7.26,26-16.18a37.74,37.74,0,0,0,4.93-30.35,35.37,35.37,0,0,0-4.63-10.42Z"/><path class="cls-2" d="M680.18,223.14a37.74,37.74,0,0,1-4.93,30.35c-6,8.92-15.46,14.39-26,16.18-6,1-12,1.15-18,1.9a118.8,118.8,0,0,0-15,2.91c-10.55,2.72-20.76,6.56-31,10.16s-20.55,7-31.25,8.75a97.45,97.45,0,0,1-34.85-.73C496,288.11,475,276.71,455.24,264.3l-.14-.09-2-1.26c-4.19-2.65-8.36-5.34-12.52-8-.87-.56-1.67.83-.81,1.38q5.3,3.43,10.65,6.86a30.75,30.75,0,0,1-30.62-39.79c5.82-19,27.06-28.61,45.18-31.32a84.38,84.38,0,0,1,59.33,13.39c8.09,5.5,14.94,12.66,23.33,17.74a39.43,39.43,0,0,0,9.44,4.17,36.16,36.16,0,0,0,17.87.57c21.59-4.65,36.38-23.19,57.06-29.89a38,38,0,0,1,29.54,2.11,37.25,37.25,0,0,1,14,12.58A35.37,35.37,0,0,1,680.18,223.14Z"/><path class="cls-2" d="M676.75,211.94l-1.21.78a37.25,37.25,0,0,0-14-12.58A38,38,0,0,0,632,198c-20.68,6.7-35.47,25.24-57.06,29.89a36.16,36.16,0,0,1-17.87-.57l.44-1.43c10.71,3.08,21.86,0,31.71-5.05,18.84-9.72,36.15-28.77,59.16-26.33A38.78,38.78,0,0,1,676.75,211.94Z"/><path class="cls-2" d="M557.52,225.91l-.44,1.43a39.43,39.43,0,0,1-9.44-4.17c-8.38-5.08-15.24-12.24-23.33-17.74A84.38,84.38,0,0,0,465,192c-18.12,2.71-39.36,12.36-45.18,31.32a30.75,30.75,0,0,0,30.62,39.79l2.28,1.44a32.93,32.93,0,0,1-12.07-1c-19.29-5.37-29.16-27.42-20.47-45.43,8.53-17.67,29.58-26.11,48-28.1a85.66,85.66,0,0,1,59.73,16c8.42,6.25,15.91,14.14,25.63,18.44A31.93,31.93,0,0,0,557.52,225.91Z"/><path class="cls-2" d="M453.12,263l2,1.26a.79.79,0,0,1-.3.11c-.7.11-1.39.2-2.09.27l-2.28-1.44Q451.77,263.11,453.12,263Z"/><path class="cls-2" d="M453.12,263q-1.34.15-2.68.19-5.35-3.41-10.65-6.86c-.86-.55-.06-1.94.81-1.38C444.76,257.61,448.92,260.31,453.12,263Z"/><rect class="cls-2" x="517.03" y="376.01" width="50" height="50"/><rect class="cls-2" x="602.03" y="375.01" width="50" height="50"/><rect class="cls-2" x="516.53" y="449.01" width="50" height="50"/><rect class="cls-2" x="686.03" y="375.51" width="50" height="50"/><rect class="cls-2" x="686.03" y="448.51" width="50" height="50"/><rect class="cls-2" x="517.53" y="516.01" width="50" height="50"/><rect class="cls-2" x="604.5" y="516.98" width="50" height="50"/><rect class="cls-2" x="602.03" y="448.01" width="50" height="50"/><rect class="cls-2" x="688.5" y="517.48" width="50" height="50"/><path class="cls-2" d="M918.29,56.74a38.5,38.5,0,0,1-5.19,48.44c-7.7,7.54-17.43,10.58-27.95,11.64-6.32.64-12.63,1-18.89,2.2a152.76,152.76,0,0,0-16.83,4.33c-11.14,3.47-22,7.78-33.11,11.3-10.9,3.45-22.12,6.1-33.6,6.38a111.39,111.39,0,0,1-35.72-5.4c-18.89-5.89-36.09-15.7-52.76-26.23.7-.07,1.39-.15,2.09-.27a.79.79,0,0,0,.3-.11l.14.09c19.8,12.41,40.76,23.81,63.92,28.36a97.45,97.45,0,0,0,34.85.73c10.7-1.78,21-5.17,31.25-8.75s20.47-7.44,31-10.16a118.8,118.8,0,0,1,15-2.91c6-.75,12-.88,18-1.9,10.49-1.79,19.95-7.26,26-16.18a37.74,37.74,0,0,0,4.93-30.35,35.37,35.37,0,0,0-4.63-10.42Z"/><path class="cls-2" d="M921.71,67.94a37.74,37.74,0,0,1-4.93,30.35c-6,8.92-15.46,14.39-26,16.18-6,1-12,1.15-18,1.9a118.8,118.8,0,0,0-15,2.91c-10.55,2.72-20.76,6.56-31,10.16s-20.55,7-31.25,8.75a97.45,97.45,0,0,1-34.85-.73c-23.16-4.55-44.11-15.95-63.92-28.36l-.14-.09-2-1.26c-4.19-2.65-8.36-5.34-12.52-8-.87-.56-1.67.83-.81,1.38q5.3,3.43,10.65,6.86a30.75,30.75,0,0,1-30.62-39.79c5.82-19,27.06-28.61,45.18-31.32a84.38,84.38,0,0,1,59.33,13.39c8.09,5.5,14.94,12.66,23.33,17.74a39.43,39.43,0,0,0,9.44,4.17,36.16,36.16,0,0,0,17.87.57c21.59-4.65,36.38-23.19,57.06-29.89a38,38,0,0,1,29.54,2.11,37.25,37.25,0,0,1,14,12.58A35.37,35.37,0,0,1,921.71,67.94Z"/><path class="cls-2" d="M918.29,56.74l-1.21.78a37.25,37.25,0,0,0-14-12.58,38,38,0,0,0-29.54-2.11c-20.68,6.7-35.47,25.24-57.06,29.89a36.16,36.16,0,0,1-17.87-.57l.44-1.43c10.71,3.08,21.86,0,31.71-5.05C849.61,56,866.91,36.9,889.93,39.34A38.78,38.78,0,0,1,918.29,56.74Z"/><path class="cls-2" d="M799.06,70.72l-.44,1.43A39.43,39.43,0,0,1,789.18,68c-8.38-5.08-15.24-12.24-23.33-17.74a84.38,84.38,0,0,0-59.33-13.39c-18.12,2.71-39.36,12.36-45.18,31.32A30.75,30.75,0,0,0,692,108l2.28,1.44a32.93,32.93,0,0,1-12.07-1C662.88,103,653,81,661.7,62.94c8.53-17.67,29.58-26.11,48-28.1a85.66,85.66,0,0,1,59.73,16C777.84,57.07,785.33,65,795,69.26A31.93,31.93,0,0,0,799.06,70.72Z"/><path class="cls-2" d="M694.65,107.76l2,1.26a.79.79,0,0,1-.3.11c-.7.11-1.39.2-2.09.27L692,108Q693.31,107.91,694.65,107.76Z"/><path class="cls-2" d="M694.65,107.76q-1.34.15-2.68.19-5.35-3.41-10.65-6.86c-.86-.55-.06-1.94.81-1.38C686.29,102.42,690.45,105.12,694.65,107.76Z"/><rect class="cls-2" x="23.53" y="409.01" width="50" height="50"/><rect class="cls-2" x="108.53" y="408.01" width="50" height="50"/><rect class="cls-2" x="192.53" y="408.51" width="50" height="50"/><rect class="cls-2" x="23.03" y="482.01" width="50" height="50"/><rect class="cls-2" x="108.53" y="481.01" width="50" height="50"/><rect class="cls-2" x="192.53" y="481.51" width="50" height="50"/><rect class="cls-2" x="24.03" y="549.01" width="50" height="50"/><rect class="cls-2" x="111" y="549.98" width="50" height="50"/><rect class="cls-2" x="195" y="550.48" width="50" height="50"/><rect class="cls-3" x="726" y="408.11" width="235" height="191.87" rx="6" ry="6"/><rect class="cls-2" x="736.2" y="431.35" width="50" height="50"/><rect class="cls-2" x="821.2" y="430.35" width="50" height="50"/><rect class="cls-2" x="735.7" y="504.35" width="50" height="50"/><rect class="cls-2" x="905.2" y="430.85" width="50" height="50"/><rect class="cls-2" x="905.2" y="503.85" width="50" height="50"/><rect class="cls-2" x="736.7" y="572.35" width="50" height="28.63"/><rect class="cls-2" x="823.67" y="572.31" width="50" height="27.67"/><rect class="cls-2" x="821.2" y="503.35" width="50" height="50"/><rect class="cls-2" x="907.67" y="572.81" width="50" height="27.17"/><rect class="cls-3" x="246" y="437.11" width="287" height="162.87" rx="6" ry="6"/><rect class="cls-2" x="282.5" y="463.98" width="50" height="50"/><rect class="cls-2" x="363.5" y="462.98" width="50" height="50"/><rect class="cls-2" x="447.5" y="463.48" width="50" height="50"/><rect class="cls-2" x="282.5" y="536.98" width="50" height="50"/><rect class="cls-2" x="367.5" y="535.98" width="50" height="50"/><rect class="cls-2" x="451.5" y="536.48" width="50" height="50"/></g></g></svg>