<svg xmlns="http://www.w3.org/2000/svg" viewBox="0 0 154.27 49.61"><defs><style>.cls-1{fill:#d6cec1;}.cls-2{fill:#ba8759;}.cls-3{fill:#282828;}.cls-4{fill:#cc9466;}.cls-5{fill:#dd8c8c;}.cls-6{fill:#5b5656;}.cls-7{fill:#6d6867;}.cls-8{fill:#898989;}.cls-9{fill:#444;}.cls-10{fill:#262423;}.cls-11{fill:#e7dfce;}.cls-12{fill:#a57751;}</style></defs><title>brick</title><g id="Layer_2" data-name="Layer 2"><g id="Layer_1-2" data-name="Layer 1"><rect class="cls-1" x="2.06" width="6.19" height="14.33" rx="3.09" ry="3.09"/><polygon class="cls-2" points="148.79 48.83 0.92 47.97 1.26 9.35 149.14 10.21 148.79 48.83"/><path class="cls-3" d="M5.52,24.42H6c1.5,0,2.74-.92,2.75-2.06V22c0-1.14-1.2-2.08-2.7-2.09H5.57c-1.5,0-2.74.92-2.75,2.06v.38C2.8,23.47,4,24.41,5.52,24.42Z"/><path class="cls-4" d="M138.91,16.86c0,4.49,5.45,13.56,7.72,8s7.66-3.71,7.64-8.2a7.87,7.87,0,0,0-7.72-8A8,8,0,0,0,138.91,16.86Z"/><rect class="cls-4" x="23.22" y="32.98" width="8.31" height="16.63" rx="4.15" ry="4.15"/><rect class="cls-4" x="121.17" y="34.36" width="5.62" height="15.25" rx="2.81" ry="2.81"/><rect class="cls-3" x="123.17" y="46.48" width="1.87" height="2.95" rx="0.93" ry="0.93"/><rect class="cls-3" x="125.12" y="46.37" width="1.87" height="2.95" rx="0.93" ry="0.93"/><rect class="cls-3" x="121.27" y="46.48" width="1.87" height="2.95" rx="0.93" ry="0.93"/><rect class="cls-3" x="26.52" y="46.14" width="2.17" height="3.43" rx="0.93" ry="0.93"/><rect class="cls-3" x="28.79" y="46.01" width="2.17" height="3.43" rx="0.93" ry="0.93"/><rect class="cls-3" x="24.32" y="46.14" width="2.17" height="3.43" rx="0.93" ry="0.93"/><rect class="cls-3" x="1.02" y="35.48" width="7.19" height="2.62" rx="0.22" ry="0.22"/><rect class="cls-5" y="26.47" width="5.06" height="5.06" rx="0.5" ry="0.5" transform="translate(-26.47 31.52) rotate(-90)"/><rect class="cls-6" x="54.56" y="26.77" width="38.64" height="4.68" transform="translate(44.77 102.99) rotate(-90)"/><rect class="cls-7" x="43.99" y="9.64" width="66.36" height="18.47"/><rect class="cls-8" x="53.4" y="9.61" width="47.54" height="13.82"/><rect class="cls-9" x="2.03" y="17.48" width="7.6" height="2.79" rx="1.4" ry="1.4"/><rect class="cls-10" x="2.06" y="32.36" width="0.94" height="2.33"/><rect class="cls-10" x="1.04" y="32.61" width="0.33" height="2.33"/><rect class="cls-10" x="3.87" y="32.36" width="0.94" height="2.33"/><rect class="cls-10" x="5.35" y="32.36" width="0.94" height="2.33"/><rect class="cls-10" x="7.07" y="32.11" width="0.94" height="2.33"/><rect class="cls-10" x="8.85" y="32.11" width="0.94" height="2.33"/><rect class="cls-10" x="8.85" y="35.04" width="0.94" height="2.33"/><rect class="cls-10" x="8.85" y="37.77" width="0.94" height="2.33"/><rect class="cls-11" x="6.45" width="6.19" height="14.33" rx="3.09" ry="3.09"/><path class="cls-12" d="M20,16.25s7.63-1.52,0-8.45-8.61-.72-8.61-.72S6.1,13,13.9,14.89,20,16.25,20,16.25Z"/><path class="cls-4" d="M18.44,16.78s4.28-.94,0-5.22-4.83-.44-4.83-.44-3,3.66,1.42,4.82S18.44,16.78,18.44,16.78Z"/></g></g></svg>