<svg xmlns="http://www.w3.org/2000/svg" viewBox="0 0 147.26 21.42"><defs><style>.cls-1{fill:#cc3232;}.cls-2{fill:#e53935;}.cls-3{fill:#efbf8f;}.cls-4{fill:#ffcd94;}.cls-5{fill:#282828;}.cls-6{fill:#fff;}.cls-7{fill:#f9ce1d;}.cls-8{fill:#ef9a9a;}.cls-9{fill:#444;}.cls-10{fill:#212121;}.cls-11{fill:#e0bb1e;}</style></defs><title>paddle_2</title><g id="Layer_2" data-name="Layer 2"><g id="Layer_1-2" data-name="Layer 1"><rect class="cls-1" x="103.14" y="2.93" width="43.03" height="10.79" rx="2.45" ry="2.45"/><rect class="cls-2" x="52.91" y="0.95" width="58.11" height="19.82" rx="5" ry="5"/><rect class="cls-2" x="101.25" y="7.96" width="44.92" height="9.7" rx="2.45" ry="2.45"/><rect class="cls-3" x="44.66" y="5.94" width="12.43" height="7.86" rx="1.98" ry="1.98"/><rect class="cls-4" x="12.6" y="0.95" width="39.19" height="19.82" rx="5" ry="5"/><path class="cls-2" d="M23.27.95V20.77c-8.89.14-14.89-4.63-19.79-10.9A25.48,25.48,0,0,1,23.27.95Z"/><rect class="cls-5" y="5.54" width="6.96" height="6.96" rx="1.76" ry="1.76"/><rect class="cls-6" x="17.61" y="0.33" width="6.28" height="21.06"/><rect class="cls-5" x="98.53" y="8.82" width="2.58" height="11.95"/><rect class="cls-7" x="96.98" y="0.95" width="6.16" height="8.3" rx="1.55" ry="1.55"/><rect class="cls-1" x="59.43" y="13.6" width="31.47" height="5.97" rx="1.51" ry="1.51"/><path class="cls-7" d="M89.3,20.28h5.16c2.19-.45,3.39-1.56,2.9-3.82,0-3.36-1.79-3.94-4.3-3.5l.75-.91c-.23-1.75-1.51-1.8-3.28-1.08l-1.24,1.45Z"/><rect class="cls-6" x="82.88" y="14.73" width="10.09" height="3.28" rx="0.39" ry="0.39" transform="translate(104.3 -71.56) rotate(90)"/><rect class="cls-8" x="32.2" y="9.02" width="7.8" height="1.98" rx="0.5" ry="0.5"/><rect class="cls-8" x="36.73" y="7.8" width="2.7" height="2.04" rx="0.5" ry="0.5"/><rect class="cls-8" x="36.73" y="9.98" width="2.7" height="2.04" rx="0.5" ry="0.5"/><rect class="cls-5" x="28.84" y="2.93" width="2.11" height="2.11" rx="0.53" ry="0.53"/><rect class="cls-5" x="28.84" y="14.88" width="2.11" height="2.11" rx="0.53" ry="0.53" transform="translate(18.67 -16.03) rotate(42.59)"/><rect class="cls-9" x="25.13" y="3.63" width="6.79" height="3.01" rx="0.76" ry="0.76" transform="translate(9.45 -16.69) rotate(38.63)"/><rect class="cls-9" x="25.13" y="13.29" width="6.79" height="3.01" rx="0.76" ry="0.76" transform="translate(-0.84 27.84) rotate(-51.37)"/><rect class="cls-6" x="42.04" y="12.88" width="7.64" height="1.94" rx="0.49" ry="0.49"/><rect class="cls-6" x="38.88" y="10.03" width="7.64" height="1.94" rx="0.49" ry="0.49" transform="translate(53.7 -31.7) rotate(90)"/><rect class="cls-6" x="41.73" y="6.83" width="7.64" height="1.94" rx="0.49" ry="0.49"/><rect class="cls-10" x="46.56" y="10.01" width="1.03" height="1.51" rx="0.26" ry="0.26"/><rect class="cls-8" x="28.79" y="19.98" width="6.81" height="1.1" rx="0.28" ry="0.28"/><rect class="cls-8" x="28.47" y="0.39" width="6.81" height="1.1" rx="0.28" ry="0.28"/><ellipse class="cls-11" cx="144.17" cy="6.26" rx="3.09" ry="6.26"/><ellipse class="cls-7" cx="143.82" cy="11.4" rx="3.44" ry="6.26"/></g></g></svg>